<svg width="104" height="215" viewBox="0 0 104 215" fill="none" xmlns="http://www.w3.org/2000/svg">
<path d="M101.612 192.108V193.726L100.545 195.343V192.481L101.612 192.108Z" fill="#7E412D"/>
<path d="M1.02475 193.477V195.467L2.44815 196.462L2.92261 194.099L1.02475 193.477Z" fill="#7E412D"/>
<path d="M22.376 199.2L5.05799 193.352C5.05799 193.352 1.61811 192.481 1.02503 194.721C0.787794 195.716 1.26226 196.711 2.09258 197.209C5.29522 199.2 15.259 204.923 22.4946 205.172L82.5146 205.42C82.7518 205.42 82.9891 205.42 83.2263 205.296C85.7173 204.425 101.612 198.578 101.612 193.725C101.612 190.491 82.7518 199.449 82.7518 199.449L22.376 199.2Z" fill="#7E412D"/>
<path d="M22.3759 197.707L5.05784 191.859C5.05784 191.859 1.73657 190.988 1.02487 193.103C0.669024 194.099 1.14349 195.094 1.97381 195.592C5.17645 197.582 15.1402 203.305 22.3759 203.554L82.7517 203.803C82.7517 203.803 101.493 197.458 101.493 192.108C101.493 188.873 82.6331 197.831 82.6331 197.831L22.3759 197.707Z" fill="#BC7153"/>
<path d="M28.8996 210.024C28.8996 212.761 26.8831 215 24.2736 215C21.664 215 19.5289 212.885 19.5289 210.148C19.5289 207.411 21.5454 205.171 24.1549 205.171C26.7645 205.171 28.8996 207.286 28.8996 210.024Z" fill="#898A8D"/>
<path d="M25.816 210.023C25.816 210.894 25.1043 211.641 24.274 211.765C23.4437 211.765 22.732 211.019 22.6133 210.148C22.6133 209.277 23.325 208.53 24.1554 208.406C25.1043 208.406 25.816 209.152 25.816 210.023Z" fill="#C6C6C6"/>
<path d="M82.0402 210.024C82.0402 212.761 80.0237 215 77.4142 215C74.8046 215 72.6695 212.885 72.6695 210.148C72.6695 207.411 74.686 205.171 77.2956 205.171C79.7865 205.171 81.9216 207.286 82.0402 210.024Z" fill="#898A8D"/>
<path d="M78.8375 210.023C78.8375 210.894 78.1258 211.641 77.2955 211.765C76.4652 211.765 75.7535 211.019 75.6349 210.148C75.6349 209.277 76.3465 208.53 77.1769 208.406C78.0072 208.282 78.8375 209.152 78.8375 210.023Z" fill="#C6C6C6"/>
<path d="M10.4384 176.681L21.707 163.368L25.6214 170.584L14.2342 182.03L10.4384 176.681Z" fill="#E2E2E2"/>
<path d="M11.3872 175.312C11.6244 174.939 11.3872 174.441 11.0314 174.192C10.3197 173.943 9.01488 173.57 7.23563 173.695C4.03298 174.068 3.20267 175.063 3.20267 175.063L16.3691 202.434C17.7925 201.688 18.5042 200.07 18.267 198.328L15.0643 183.399L16.2505 180.786C16.3691 180.537 16.1319 180.164 15.8946 180.164H13.6409C13.5223 180.413 9.96381 178.298 11.3872 175.312Z" fill="#1D1C21"/>
<path d="M16.335 202.625L3.12732 175.196L1.43328 176.093L14.641 203.523L16.335 202.625Z" fill="#EFEEED"/>
<path d="M44.1251 86.7296L53.3772 146.075C54.2075 152.295 49.2256 157.645 43.2948 156.774C39.6177 156.277 36.6523 153.54 35.7033 149.683L23.3672 101.162C22.7741 98.7977 22.7741 96.3095 23.2486 93.9456L25.3837 82.8728L44.1251 86.7296Z" fill="#060324"/>
<path d="M35.8224 140.849L15.3017 166.727L25.1469 178.049L49.9377 155.53C54.0893 151.673 54.5638 145.079 50.8867 140.725C46.9723 135.873 39.7367 135.873 35.8224 140.849Z" fill="#060324"/>
<path d="M62.9855 193.352L65.2392 175.063L73.1865 174.192L69.1536 191.735L62.9855 193.352Z" fill="#E2E2E2"/>
<path d="M63.5785 191.113C63.3413 190.739 62.8668 190.615 62.511 190.988C61.9179 191.486 61.0876 192.481 60.3759 194.347C59.1897 197.458 59.6642 198.826 59.6642 198.826L88.9625 198.951C88.9625 197.333 87.8949 195.84 86.3529 195.343L72.2375 191.486L70.6955 189.122C70.4583 188.873 70.1024 188.873 69.9838 189.246L68.9162 191.361C68.9162 191.361 65.4764 193.85 63.5785 191.113Z" fill="#1D1C21"/>
<path d="M88.9706 198.935L59.6723 198.727L59.6594 200.717L88.9577 200.925L88.9706 198.935Z" fill="#EFEEED"/>
<path d="M27.7561 107.631L63.3411 100.664L52.3097 77.8965L26.3327 80.5092L27.7561 107.631Z" fill="#060324"/>
<path d="M63.3414 134.878L61.2063 177.551L75.6775 180.04L81.7269 146.199C82.7945 140.476 79.1174 135.002 73.661 134.007C67.7302 132.763 63.5786 128.532 63.3414 134.878Z" fill="#060324"/>
<path d="M63.3414 100.664L80.6595 138.113C82.7946 143.213 80.0664 148.936 74.9659 150.305C71.4074 151.176 67.6116 149.559 65.7138 146.324L38.1947 100.664H63.3414Z" fill="#060324"/>
<path d="M90.9785 108.626L102.01 109.995C102.603 110.119 102.959 110.492 103.077 111.114C103.196 111.737 102.722 112.359 102.128 112.483L99.0444 112.981L103.67 118.33C104.264 119.077 104.026 120.072 103.196 120.445L98.4513 122.436C98.0955 122.561 97.621 122.561 97.2652 122.312C94.8928 120.694 88.3689 115.718 85.6407 111.488L90.9785 108.626Z" fill="#F9BFA1"/>
<path d="M59.9014 48.6589L61.4434 84.7388C61.6806 89.2177 66.1881 92.0792 69.9838 90.0886C72.1189 89.0933 74.4912 85.4853 74.4912 83.1215L73.3051 48.2857C73.3051 44.4289 70.3396 41.3185 66.6625 41.3185C62.8668 41.1941 59.7828 44.5533 59.9014 48.6589Z" fill="#FC5B5B"/>
<path d="M72.4746 79.7624L94.7745 108.253L87.5389 114.847L63.2225 88.9689C60.2571 85.8586 61.6805 80.5088 65.7135 79.3891C67.8486 78.7671 71.0512 78.145 72.4746 79.7624Z" fill="#FC5B5B"/>
<path d="M62.7481 37.3373C62.7481 37.3373 48.9886 33.2317 41.9902 38.5814C34.9918 43.9312 20.1647 86.9783 20.1647 86.9783C20.1647 86.9783 30.0099 101.659 58.122 91.9548C58.2407 91.3327 59.7827 69.6848 59.7827 69.6848C64.646 64.2106 80.1847 47.9125 69.9837 40.5721L62.7481 37.3373Z" fill="#FC5B5B"/>
<path d="M60.85 68.5651C60.85 68.5651 64.6457 63.5886 69.1531 56.7458" stroke="#E54141" stroke-width="0.75" stroke-miterlimit="10"/>
<path d="M7.23546 92.2037L14.5897 100.913C14.9455 101.41 14.9455 102.032 14.7083 102.53C14.2338 103.028 13.6408 103.152 13.0477 102.903L10.4381 101.161V108.377C10.4381 109.248 9.48917 109.995 8.65886 109.622L3.91419 107.88C3.55834 107.631 3.32111 107.258 3.20249 106.884C2.37218 104.023 -0.593236 95.1896 1.42325 90.7107L7.23546 92.2037Z" fill="#F9BFA1"/>
<path d="M44.7185 37.0885L12.9292 50.7739C9.01486 52.5157 7.94731 57.8655 11.0313 60.9758C12.692 62.7176 16.1319 64.5838 18.3856 63.7129L46.1418 51.7692C49.5817 50.5251 51.361 46.5439 50.1748 42.9359C48.87 39.0791 48.2769 35.4711 44.7185 37.0885Z" fill="#FC5B5B"/>
<path d="M22.2999 59.6074L9.37071 94.3187L0 90.8352L9.48933 54.7553C10.5569 50.5252 15.6574 49.1567 18.6228 52.267C20.1648 53.76 23.0116 57.4924 22.2999 59.6074Z" fill="#FC5B5B"/>
<path d="M31.0777 58.2389L44.3628 52.5159" stroke="#E54141" stroke-width="0.75" stroke-miterlimit="10"/>
<path d="M55.1571 35.9688L52.0731 35.72C52.0731 35.72 50.0566 43.4336 58.2411 45.673C59.3087 45.9219 60.3762 46.0463 61.3251 45.9219C63.3416 45.673 66.5443 44.4289 67.4932 39.4524L65.8326 38.7059L55.1571 35.9688Z" fill="#F5BFA1"/>
<path d="M54.8009 36.9642L59.1897 26.0159L70.1024 30.7436L65.7136 41.692C64.4088 44.8023 60.9689 46.2953 58.0035 45.0511C55.0381 43.807 53.6147 40.0746 54.8009 36.9642Z" fill="#F5BFA1"/>
<path d="M59.9015 23.03C59.9015 23.03 55.6313 37.2132 66.0696 40.8211L68.7978 33.9784L59.9015 23.03Z" fill="#E39780"/>
<path d="M84.2179 27.7578C83.7434 29.8728 81.7269 31.2414 79.7104 30.7437C77.694 30.2461 76.3892 28.131 76.8636 26.016C77.3381 23.901 79.3546 22.5324 81.3711 23.0301C83.5062 23.4033 84.6923 25.5184 84.2179 27.7578Z" fill="#E39780"/>
<path d="M85.0481 15.1919C85.0481 15.1919 88.3694 22.9056 79.9476 24.6474L78.5242 23.5276C78.5242 23.5276 76.9822 15.6896 81.371 12.4548L85.0481 15.1919Z" fill="#171E21"/>
<path d="M67.9674 37.9596L67.6115 37.8351C61.5621 36.3422 57.8849 30.1215 59.3083 23.7764L62.1551 10.9618C62.511 9.34446 64.053 8.34915 65.595 8.72239L79.9476 12.206C82.6758 12.828 84.4551 15.814 83.7434 18.6755L81.371 29.2506C80.0662 35.4713 74.0168 39.4525 67.9674 37.9596Z" fill="#F5BFA1"/>
<path d="M72.1186 24.8962C72 25.3939 71.407 25.6427 70.9325 25.5183C70.458 25.3939 70.2208 24.7718 70.3394 24.2741C70.458 23.7765 71.0511 23.5277 71.5256 23.6521C72 23.9009 72.2373 24.3985 72.1186 24.8962Z" fill="#171E21"/>
<path d="M79.7105 26.7624C79.5919 27.2601 78.9988 27.5089 78.5243 27.3845C78.0498 27.2601 77.8126 26.638 77.9312 26.1403C78.0498 25.6427 78.6429 25.3939 79.1174 25.5183C79.5919 25.6427 79.8291 26.2648 79.7105 26.7624Z" fill="#171E21"/>
<path d="M75.9147 26.8867L75.5589 29.6238C75.5589 29.6238 75.0844 30.9924 73.3052 29.9971" stroke="#E39780" stroke-width="0.6122" stroke-miterlimit="10" stroke-linecap="round" stroke-linejoin="round"/>
<path d="M69.3909 21.2882H69.5095L73.5424 22.1591C74.0169 22.2835 74.3728 21.9103 74.4914 21.4126C74.61 20.915 74.2541 20.5417 73.7797 20.4173L69.984 19.6708C69.5095 19.5464 69.1536 19.9197 69.035 20.4173C68.9164 20.7906 69.035 21.1638 69.3909 21.2882Z" fill="#171E21"/>
<path d="M78.6431 23.4031H78.7617L81.2526 23.9008C81.7271 24.0252 82.2016 23.6519 82.2016 23.1543C82.3202 22.6566 81.9643 22.159 81.4899 22.159L78.9989 21.6613C78.5244 21.5369 78.05 21.9101 78.05 22.4078C78.05 22.781 78.2872 23.1543 78.6431 23.4031Z" fill="#171E21"/>
<path d="M69.7466 29.9971C69.7466 29.9971 69.6279 32.4853 73.7795 32.983" stroke="#E39780" stroke-width="0.6122" stroke-miterlimit="10" stroke-linecap="round" stroke-linejoin="round"/>
<path d="M60.1389 22.0346C60.1389 22.0346 66.5441 23.1543 68.3234 10.8374L62.3926 5.86084L62.0367 7.60263L60.1389 22.0346Z" fill="#171E21"/>
<path d="M60.376 20.7905L58.1223 20.1685C58.1223 20.1685 59.7829 12.7037 59.1898 10.4642C58.4781 7.72713 60.7318 -0.235324 66.0696 2.37736C67.6116 3.24825 69.3908 3.62149 71.1701 3.37266C71.6445 3.24825 72.119 3.12384 72.5935 2.99942C75.5589 1.8797 77.9312 -1.8527 83.3876 1.13322C89.437 4.36797 92.0466 14.4455 85.9972 17.929C82.32 20.0441 68.6791 15.3164 66.8999 12.8281L62.9855 16.6849L60.376 20.7905Z" fill="#1D1C21"/>
<path d="M62.6295 21.9101C62.155 24.0252 60.1386 25.3937 58.1221 24.8961C56.1056 24.3984 54.8008 22.2834 55.2753 20.1684C55.7498 18.0533 57.7662 16.6848 59.7827 17.1824C61.7992 17.6801 63.104 19.7951 62.6295 21.9101Z" fill="#F5BFA1"/>
</svg>
